<?xml version="1.0" standalone="no"?>
<!DOCTYPE svg PUBLIC "-//W3C//DTD SVG 20010904//EN"
 "http://www.w3.org/TR/2001/REC-SVG-20010904/DTD/svg10.dtd">
<svg version="1.0" xmlns="http://www.w3.org/2000/svg"
 width="700.000000pt" height="700.000000pt" viewBox="0 0 700.000000 700.000000"
 preserveAspectRatio="xMidYMid meet">
<metadata>
Created by potrace 1.14, written by Peter Selinger 2001-2017
</metadata>
<g transform="translate(0.000000,700.000000) scale(0.100000,-0.100000)"
fill="#000000" stroke="none">
<path d="M1409 6996 c-2 -2 -31 -7 -64 -10 -257 -28 -580 -171 -790 -353 -101
-86 -210 -202 -243 -255 -9 -16 -20 -28 -24 -28 -4 0 -8 -7 -8 -15 0 -8 -4
-15 -10 -15 -5 0 -10 -7 -10 -15 0 -8 -4 -15 -9 -15 -13 0 -147 -274 -171
-350 -24 -75 -56 -215 -67 -292 -10 -70 -10 -4227 0 -4297 74 -519 391 -960
852 -1187 98 -48 285 -119 285 -109 0 3 12 0 28 -6 31 -12 103 -27 182 -37 30
-4 1000 -7 2155 -7 1722 0 2113 2 2170 13 39 8 83 16 99 19 73 12 231 69 341
122 324 159 574 412 725 734 44 94 94 230 105 288 3 13 13 60 22 104 16 73 17
256 20 2195 1 1206 -1 2132 -6 2155 -5 22 -11 56 -14 75 -22 157 -116 404
-211 555 -192 302 -473 529 -801 644 -47 17 -96 33 -108 36 -77 18 -158 35
-192 42 -41 7 -4248 16 -4256 9z"/>
</g>
</svg>
